<svg width="218" height="41" viewBox="0 0 218 41" fill="none" xmlns="http://www.w3.org/2000/svg">
<path d="M54.2571 31H57.2271V12.61H64.4271V10H47.0571V12.61H54.2571V31ZM74.4446 28.66C71.7746 28.66 69.7946 27.4 68.9846 25.21L81.6146 22.75C81.5246 18.01 78.1346 14.95 73.7846 14.95C69.1646 14.95 65.8046 18.34 65.8046 23.05C65.8046 27.79 69.2246 31.18 74.3546 31.18C76.9946 31.18 79.1846 30.28 80.5946 28.6L79.0346 26.74C77.8646 28.03 76.3046 28.66 74.4446 28.66ZM73.7846 17.38C76.3646 17.38 78.2546 19 78.7646 21.28L68.5946 23.2V22.9C68.5946 19.57 70.7546 17.38 73.7846 17.38ZM97.7637 15.1V17.5C96.4437 15.79 94.4637 14.95 92.2137 14.95C87.5637 14.95 84.1737 18.19 84.1737 23.05C84.1737 27.91 87.5637 31.18 92.2137 31.18C94.5537 31.18 96.5937 30.28 97.8837 28.48V31H100.644V15.1H97.7637ZM92.4537 28.66C89.3937 28.66 87.0837 26.44 87.0837 23.05C87.0837 19.66 89.3937 17.47 92.4537 17.47C95.4837 17.47 97.7937 19.66 97.7937 23.05C97.7937 26.44 95.4837 28.66 92.4537 28.66ZM125.983 14.95C123.283 14.95 121.063 16.09 119.863 17.89C118.813 15.91 116.773 14.95 114.343 14.95C111.943 14.95 109.993 15.85 108.853 17.47V15.1H106.093V31H108.973V22.81C108.973 19.36 110.863 17.53 113.743 17.53C116.353 17.53 117.853 19.06 117.853 22.18V31H120.733V22.81C120.733 19.36 122.623 17.53 125.503 17.53C128.113 17.53 129.613 19.06 129.613 22.18V31H132.493V21.85C132.493 17.17 129.853 14.95 125.983 14.95ZM153.032 12.61V10H138.212V31H141.212V22.51H151.742V19.93H141.212V12.61H153.032ZM163.645 31.18C168.415 31.18 171.895 27.79 171.895 23.05C171.895 18.31 168.415 14.95 163.645 14.95C158.875 14.95 155.365 18.31 155.365 23.05C155.365 27.79 158.875 31.18 163.645 31.18ZM163.645 28.66C160.585 28.66 158.275 26.44 158.275 23.05C158.275 19.66 160.585 17.47 163.645 17.47C166.705 17.47 168.985 19.66 168.985 23.05C168.985 26.44 166.705 28.66 163.645 28.66ZM178.638 17.77V15.1H175.878V31H178.758V23.08C178.758 19.6 180.678 17.71 183.768 17.71C183.978 17.71 184.188 17.71 184.428 17.74V14.95C181.638 14.95 179.658 15.91 178.638 17.77ZM207.868 14.95C205.168 14.95 202.948 16.09 201.748 17.89C200.698 15.91 198.658 14.95 196.228 14.95C193.828 14.95 191.878 15.85 190.738 17.47V15.1H187.978V31H190.858V22.81C190.858 19.36 192.748 17.53 195.628 17.53C198.238 17.53 199.738 19.06 199.738 22.18V31H202.618V22.81C202.618 19.36 204.508 17.53 207.388 17.53C209.998 17.53 211.498 19.06 211.498 22.18V31H214.378V21.85C214.378 17.17 211.738 14.95 207.868 14.95Z" fill="#333333"/>
<circle cx="20.3996" cy="20.3996" r="20.3996" fill="#0091EA"/>
<path d="M10.9321 12.6983L24.8071 35.7066" stroke="white"/>
<path d="M28.0891 7.15259L10.8574 12.9885" stroke="white"/>
<path d="M21.0208 18.1698L27.9956 7.20934" stroke="white"/>
<line x1="24.7414" y1="35.8184" x2="20.9966" y2="18.1156" stroke="white"/>
<path d="M21.0208 17.9706L10.8574 12.7892" stroke="white"/>
<circle cx="11.7292" cy="13.2625" r="3.06395" fill="white"/>
<circle cx="27.9042" cy="7.11803" r="1.7022" fill="white"/>
<circle cx="21.1287" cy="17.8792" r="1.7022" fill="white"/>
<circle cx="24.7157" cy="35.416" r="1.7022" fill="white"/>
</svg>
